<?xml version="1.0" encoding="utf-8"?>
<!-- Generator: Adobe Illustrator 20.1.0, SVG Export Plug-In . SVG Version: 6.00 Build 0)  -->
<svg version="1.1" id="Layer_1" xmlns="http://www.w3.org/2000/svg" xmlns:xlink="http://www.w3.org/1999/xlink" x="0px" y="0px"
	 viewBox="0 0 20 20" style="enable-background:new 0 0 20 20;" xml:space="preserve">
<style type="text/css">
	.st0{fill:#FFFFFF;}
</style>
<path class="st0" d="M17.4,1.7c0.5,0,0.9,0.4,0.9,0.9v14.8c0,0.5-0.4,0.9-0.9,0.9H2.6c-0.5,0-0.9-0.4-0.9-0.9V2.6
	c0-0.5,0.4-0.9,0.9-0.9H17.4 M17.4,0H2.6C1.2,0,0,1.2,0,2.6v14.8C0,18.8,1.2,20,2.6,20h14.8c1.4,0,2.6-1.2,2.6-2.6V2.6
	C20,1.2,18.8,0,17.4,0z"/>
</svg>
