<?xml version="1.0" encoding="utf-8"?>
<!-- Generator: Adobe Illustrator 20.1.0, SVG Export Plug-In . SVG Version: 6.00 Build 0)  -->
<svg version="1.1" id="Layer_1" xmlns="http://www.w3.org/2000/svg" xmlns:xlink="http://www.w3.org/1999/xlink" x="0px" y="0px"
	 viewBox="0 0 23.5 20" style="enable-background:new 0 0 23.5 20;" xml:space="preserve">
<style type="text/css">
	.st0{fill:#FFFFFF;}
</style>
<path class="st0" d="M6.3,6.5L3.8,9l6.8,6.8L22.7,3.6l-2.5-2.5l-9.7,9.7L6.3,6.5z"/>
<path class="st0" d="M18.2,17.4c0,0.5-0.4,0.9-0.9,0.9H2.6c-0.5,0-0.9-0.4-0.9-0.9V2.6c0-0.5,0.4-0.9,0.9-0.9h14.7l1.4-1.4
	C18.2,0.1,17.8,0,17.3,0H2.6C1.1,0-0.1,1.2-0.1,2.6v14.8c0,1.4,1.2,2.6,2.6,2.6h14.8c1.4,0,2.6-1.2,2.6-2.6V8.8l-1.7,1.7V17.4z"/>
</svg>
